Coordinates
version=1
nRows=17
nColumns=40
inDegrees=yes

Units are S.I. units (second, meters, Newtons, ...)
If the header above contains a line with 'inDegrees', this indicates whether rotational values are in degrees (yes) or radians (no).

endheader
time	pelvis_tilt	pelvis_list	pelvis_rotation	pelvis_tx	pelvis_ty	pelvis_tz	hip_flexion_r	hip_adduction_r	hip_rotation_r	knee_angle_r	knee_angle_r_beta	ankle_angle_r	subtalar_angle_r	mtp_angle_r	hip_flexion_l	hip_adduction_l	hip_rotation_l	knee_angle_l	knee_angle_l_beta	ankle_angle_l	subtalar_angle_l	mtp_angle_l	lumbar_extension	lumbar_bending	lumbar_rotation	arm_flex_r	arm_add_r	arm_rot_r	elbow_flex_r	pro_sup_r	wrist_flex_r	wrist_dev_r	arm_flex_l	arm_add_l	arm_rot_l	elbow_flex_l	pro_sup_l	wrist_flex_l	wrist_dev_l
1749651070.91199994	     -7.81805763	     11.86473485	    -60.09094406	      0.15555750	     -0.40293627	      0.84375966	     80.00000000	     -7.00000000	      0.00000000	     80.00000000	      1.39626340	      0.00000000	      0.00000000	      0.00000000	     80.00000000	     -7.00000000	      0.00000000	     80.00000000	      1.39626340	      0.00000000	      0.00000000	      0.00000000	     -6.17709532	      4.99046880	     -6.38510341	     19.63745713	     -9.46107185	    -59.18343550	      0.94090691	     67.77288295	      0.00000000	      4.98586825	     13.68773863	     -5.69515142	      0.04338811	     74.52657026	     45.43060669	      0.00000000	      4.98586825
1749651071.18000007	     -8.71357662	     13.29201235	    -60.54958026	      0.15178164	     -0.40449651	      0.83974761	     80.00000000	     -7.00000000	      0.00000000	     80.00000000	      1.39626340	      0.00000000	      0.00000000	      0.00000000	     80.00000000	     -7.00000000	      0.00000000	     80.00000000	      1.39626340	      0.00000000	      0.00000000	      0.00000000	     -4.82408989	      4.89232235	     -6.40313087	     20.48772481	     -8.86884626	    -60.07237998	      2.73752756	     67.21159775	      0.00000000	      4.98708953	     13.39478528	     -5.63115800	      0.04478726	     74.54120314	     45.40762110	      0.00000000	      4.98708953
1749651071.21300006	     -8.25333459	     12.63951932	    -58.91344187	      0.15490069	     -0.40271861	      0.84139715	     80.00000000	     -7.00000000	      0.00000000	     80.00000000	      1.39626340	      0.00000000	      0.00000000	      0.00000000	     80.00000000	     -7.00000000	      0.00000000	     80.00000000	      1.39626340	      0.00000000	      0.00000000	      0.00000000	     -5.43382465	      4.70218944	     -8.41744841	     20.51317005	     -9.00409320	    -60.36915248	      1.42774723	     67.94997098	      0.00000000	      4.98786925	     13.22714240	     -5.94830798	      0.04188419	     74.54575432	     45.39649111	      0.00000000	      4.98786925
1749651071.24699998	     -8.21554939	     12.65438609	    -60.16113291	      0.15350947	     -0.40332649	      0.84299047	     80.00000000	     -7.00000000	      0.00000000	     80.00000000	      1.39626340	      0.00000000	      0.00000000	      0.00000000	     80.00000000	     -7.00000000	      0.00000000	     80.00000000	      1.39626340	      0.00000000	      0.00000000	      0.00000000	     -5.21958375	      4.49460368	     -6.57331621	     19.90471458	     -9.31516738	    -60.81000825	      0.87506422	     76.51276994	      0.00000000	      4.99397998	     13.66169379	     -5.72192877	      0.04404038	     74.58465655	     45.29312492	      0.00000000	      4.99397998
1749651071.27999997	     -8.12537365	     12.52536302	    -60.16720807	      0.15438301	     -0.40399300	      0.84315099	     80.00000000	     -7.00000000	      0.00000000	     80.00000000	      1.39626340	      0.00000000	      0.00000000	      0.00000000	     80.00000000	     -7.00000000	      0.00000000	     80.00000000	      1.39626340	      0.00000000	      0.00000000	      0.00000000	     -5.39924677	      4.74720043	     -6.14789629	     19.57361209	     -9.53869706	    -57.80402373	      1.17547471	     70.77883478	      0.00000000	      4.99575716	     13.90228227	     -5.61645396	      0.04604317	     74.62132531	     45.24067197	      0.00000000	      4.99575716
1749651071.31399989	     -8.16624583	     12.45546564	    -59.97315410	      0.15441152	     -0.40305460	      0.84337660	     80.00000000	     -7.00000000	      0.00000000	     80.00000000	      1.39626340	      0.00000000	      0.00000000	      0.00000000	     80.00000000	     -7.00000000	      0.00000000	     80.00000000	      1.39626340	      0.00000000	      0.00000000	      0.00000000	     -5.72608583	      4.97165499	     -5.83189077	     19.22518539	     -9.48253371	    -56.89687973	      1.44226295	     69.76583209	      0.00000000	      4.99607248	     14.13535562	     -5.56327573	      0.04700045	     74.63404039	     45.22749875	      0.00000000	      4.99607248
1749651071.34699988	     -8.28750081	     12.32948427	    -59.76732965	      0.15418607	     -0.40368335	      0.84369447	     80.00000000	     -7.00000000	      0.00000000	     80.00000000	      1.39626340	      0.00000000	      0.00000000	      0.00000000	     80.00000000	     -7.00000000	      0.00000000	     80.00000000	      1.39626340	      0.00000000	      0.00000000	      0.00000000	     -5.60052506	      5.06707198	     -5.72884100	     19.04124854	     -9.53839011	    -57.24842632	      1.38945203	     69.38843743	      0.00000000	      4.99636365	     14.39616860	     -5.51683824	      0.04749440	     74.64116042	     45.21827176	      0.00000000	      4.99636365
1749651071.38100004	     -8.57861969	     12.49865211	    -59.77795392	      0.15316477	     -0.40340946	      0.84285189	     80.00000000	     -7.00000000	      0.00000000	     80.00000000	      1.39626340	      0.00000000	      0.00000000	      0.00000000	     80.00000000	     -7.00000000	      0.00000000	     80.00000000	      1.39626340	      0.00000000	      0.00000000	      0.00000000	     -5.54456638	      5.24987159	     -6.21197761	     19.60233580	     -9.46258506	    -56.49112469	      1.42303145	     68.56176294	      0.00000000	      4.99663758	     14.04358889	     -5.64284215	      0.04693137	     74.65187746	     45.20673884	      0.00000000	      4.99663758
1749651071.41400003	     -8.77920225	     12.70357743	    -57.10484916	      0.15542460	     -0.40349055	      0.83968173	     80.00000000	     -7.00000000	      0.00000000	     80.00000000	      1.39626340	      0.00000000	      0.00000000	      0.00000000	     80.00000000	     -7.00000000	      0.00000000	     80.00000000	      1.39626340	      0.00000000	      0.00000000	      0.00000000	     -4.97266470	      5.25946255	     -9.10579414	     19.80402416	     -9.12783012	    -63.86674766	      0.95861717	     75.19628628	      0.00000000	      5.00102343	     14.02277129	     -5.94559699	      0.05039075	     74.91248652	     44.94879021	      0.00000000	      5.00102343
1749651071.44700003	     -8.69500858	     12.71430976	    -57.24990649	      0.15540027	     -0.40391810	      0.83996056	     80.00000000	     -7.00000000	      0.00000000	     80.00000000	      1.39626340	      0.00000000	      0.00000000	      0.00000000	     80.00000000	     -7.00000000	      0.00000000	     80.00000000	      1.39626340	      0.00000000	      0.00000000	      0.00000000	     -4.89171534	      5.23666730	     -8.64324064	     19.52338045	     -9.07633647	    -63.26528702	      0.75590510	     73.93280313	      0.00000000	      5.00093318	     14.37733197	     -5.75204729	      0.05264795	     74.91605005	     44.95192601	      0.00000000	      5.00093318
1749651071.48099995	     -8.39290596	     12.32370660	    -57.32473359	      0.15680922	     -0.40463753	      0.84115402	     80.00000000	     -7.00000000	      0.00000000	     80.00000000	      1.39626340	      0.00000000	      0.00000000	      0.00000000	     80.00000000	     -7.00000000	      0.00000000	     80.00000000	      1.39626340	      0.00000000	      0.00000000	      0.00000000	     -4.94662563	      5.10639421	     -8.67544913	     19.45609379	     -9.40931823	    -62.79661455	      0.88159873	     72.81089155	      0.00000000	      5.00085921	     14.31694100	     -5.69266373	      0.05362267	     74.91871969	     44.95452611	      0.00000000	      5.00085921
1749651071.51500010	     -8.56374474	     12.48950816	    -57.39881295	      0.15594974	     -0.40459986	      0.84062035	     80.00000000	     -7.00000000	      0.00000000	     80.00000000	      1.39626340	      0.00000000	      0.00000000	      0.00000000	     80.00000000	     -7.00000000	      0.00000000	     80.00000000	      1.39626340	      0.00000000	      0.00000000	      0.00000000	     -4.92959474	      5.19341240	     -8.67222720	     19.71259908	     -9.35733089	    -59.82607794	      0.95566787	     69.57338251	      0.00000000	      5.00066770	     14.11587258	     -5.71491839	      0.05429671	     74.92563641	     44.96135689	      0.00000000	      5.00066770
1749651071.54800010	     -8.39754382	     12.43024872	    -56.82887089	      0.15727318	     -0.40443078	      0.84048985	     80.00000000	     -7.00000000	      0.00000000	     80.00000000	      1.39626340	      0.00000000	      0.00000000	      0.00000000	     80.00000000	     -7.00000000	      0.00000000	     80.00000000	      1.39626340	      0.00000000	      0.00000000	      0.00000000	     -4.91625745	      5.12305694	     -8.98011755	     19.29272476	     -9.45826909	    -63.13601021	      0.77413489	     76.93311244	      0.00000000	      5.00031592	     14.35800055	     -5.59695814	      0.05492940	     74.93135219	     44.97135063	      0.00000000	      5.00031592
1749651071.58200002	     -8.30642262	     12.33110213	    -57.20913648	      0.15702988	     -0.40477098	      0.84122269	     80.00000000	     -7.00000000	      0.00000000	     80.00000000	      1.39626340	      0.00000000	      0.00000000	      0.00000000	     80.00000000	     -7.00000000	      0.00000000	     80.00000000	      1.39626340	      0.00000000	      0.00000000	      0.00000000	     -4.97753124	      4.95214663	     -9.48520329	     19.81595351	     -9.23233024	    -61.74138382	      0.77718725	     75.36661485	      0.00000000	      5.00028588	     13.59104913	     -6.02698268	      0.05169808	     74.93435886	     44.97332704	      0.00000000	      5.00028588
1749651071.61500001	     -8.26575863	     12.34252003	    -57.38606252	      0.15707298	     -0.40420863	      0.84141974	     80.00000000	     -7.00000000	      0.00000000	     80.00000000	      1.39626340	      0.00000000	      0.00000000	      0.00000000	     80.00000000	     -7.00000000	      0.00000000	     80.00000000	      1.39626340	      0.00000000	      0.00000000	      0.00000000	     -4.98580389	      4.87957626	     -9.82247592	     20.00268839	     -9.02476886	    -61.96785094	      0.64981938	     74.32861256	      0.00000000	      5.00026646	     13.34221184	     -6.01105124	      0.05215492	     74.93557705	     44.97432060	      0.00000000	      5.00026646
1749651071.64800000	     -8.26274458	     12.33852457	    -57.80384973	      0.15682386	     -0.40451478	      0.84153064	     80.00000000	     -7.00000000	      0.00000000	     80.00000000	      1.39626340	      0.00000000	      0.00000000	      0.00000000	     80.00000000	     -7.00000000	      0.00000000	     80.00000000	      1.39626340	      0.00000000	      0.00000000	      0.00000000	     -5.15590900	      4.98228743	     -9.19342406	     20.01487965	     -9.22368754	    -61.58476670	      0.73475277	     72.96779039	      0.00000000	      5.00023632	     13.41108595	     -6.03689577	      0.05208854	     74.93771188	     44.97602390	      0.00000000	      5.00023632
1749651071.68199992	     -8.26230219	     12.38353689	    -57.83576529	      0.15672129	     -0.40427571	      0.84144094	     80.00000000	     -7.00000000	      0.00000000	     80.00000000	      1.39626340	      0.00000000	      0.00000000	      0.00000000	     80.00000000	     -7.00000000	      0.00000000	     80.00000000	      1.39626340	      0.00000000	      0.00000000	      0.00000000	     -5.23132939	      4.96652828	     -8.78860772	     19.90226136	     -9.29037973	    -61.45498677	      0.88827477	     72.22591384	      0.00000000	      5.00022056	     13.74470979	     -5.82352785	      0.05424534	     74.93926847	     44.97703660	      0.00000000	      5.00022056
